<mxfile host="Electron" agent="Mozilla/5.0 (Windows NT 10.0; Win64; x64) AppleWebKit/537.36 (KHTML, like Gecko) draw.io/24.7.17 Chrome/128.0.6613.36 Electron/32.0.1 Safari/537.36" version="24.7.17">
  <diagram name="Page-1" id="1FvkV7I0xcnwdzQFyXs6">
    <mxGraphModel dx="840" dy="497" grid="1" gridSize="10" guides="1" tooltips="1" connect="1" arrows="1" fold="1" page="1" pageScale="1" pageWidth="850" pageHeight="1100" math="0" shadow="0">
      <root>
        <mxCell id="0" />
        <mxCell id="1" parent="0" />
        <mxCell id="_pT-xiRRaMxpOXz4g-zy-1" value="Generate Sales Report Activity" style="swimlane;childLayout=stackLayout;resizeParent=1;resizeParentMax=0;startSize=20;html=1;" vertex="1" parent="1">
          <mxGeometry x="260" y="90" width="520" height="1180" as="geometry" />
        </mxCell>
        <mxCell id="_pT-xiRRaMxpOXz4g-zy-2" value="Admin" style="swimlane;startSize=20;html=1;" vertex="1" parent="_pT-xiRRaMxpOXz4g-zy-1">
          <mxGeometry y="20" width="200" height="1160" as="geometry" />
        </mxCell>
        <mxCell id="_pT-xiRRaMxpOXz4g-zy-5" value="" style="strokeWidth=2;html=1;shape=mxgraph.flowchart.start_2;whiteSpace=wrap;fillColor=#000000;" vertex="1" parent="_pT-xiRRaMxpOXz4g-zy-2">
          <mxGeometry x="85" y="30" width="30" height="30" as="geometry" />
        </mxCell>
        <mxCell id="_pT-xiRRaMxpOXz4g-zy-6" value="Login to system" style="rounded=1;whiteSpace=wrap;html=1;" vertex="1" parent="_pT-xiRRaMxpOXz4g-zy-2">
          <mxGeometry x="40" y="100" width="120" height="40" as="geometry" />
        </mxCell>
        <mxCell id="_pT-xiRRaMxpOXz4g-zy-7" value="Request a report" style="rounded=1;whiteSpace=wrap;html=1;" vertex="1" parent="_pT-xiRRaMxpOXz4g-zy-2">
          <mxGeometry x="40" y="180" width="120" height="40" as="geometry" />
        </mxCell>
        <mxCell id="_pT-xiRRaMxpOXz4g-zy-9" value="Select the desired report type" style="rounded=1;whiteSpace=wrap;html=1;" vertex="1" parent="_pT-xiRRaMxpOXz4g-zy-2">
          <mxGeometry x="40" y="250" width="120" height="50" as="geometry" />
        </mxCell>
        <mxCell id="_pT-xiRRaMxpOXz4g-zy-11" value="Is data filtering needed?" style="rhombus;whiteSpace=wrap;html=1;" vertex="1" parent="_pT-xiRRaMxpOXz4g-zy-2">
          <mxGeometry x="40" y="380" width="120" height="80" as="geometry" />
        </mxCell>
        <mxCell id="_pT-xiRRaMxpOXz4g-zy-18" value="Export or&amp;nbsp;&lt;div&gt;View report?&lt;/div&gt;" style="rhombus;whiteSpace=wrap;html=1;" vertex="1" parent="_pT-xiRRaMxpOXz4g-zy-2">
          <mxGeometry x="40" y="800" width="120" height="70" as="geometry" />
        </mxCell>
        <mxCell id="_pT-xiRRaMxpOXz4g-zy-22" value="" style="endArrow=classic;html=1;rounded=0;exitX=0.5;exitY=1;exitDx=0;exitDy=0;exitPerimeter=0;entryX=0.5;entryY=0;entryDx=0;entryDy=0;" edge="1" parent="_pT-xiRRaMxpOXz4g-zy-2" source="_pT-xiRRaMxpOXz4g-zy-5" target="_pT-xiRRaMxpOXz4g-zy-6">
          <mxGeometry width="50" height="50" relative="1" as="geometry">
            <mxPoint x="320" y="160" as="sourcePoint" />
            <mxPoint x="370" y="110" as="targetPoint" />
          </mxGeometry>
        </mxCell>
        <mxCell id="_pT-xiRRaMxpOXz4g-zy-23" value="" style="endArrow=classic;html=1;rounded=0;exitX=0.5;exitY=1;exitDx=0;exitDy=0;entryX=0.5;entryY=0;entryDx=0;entryDy=0;" edge="1" parent="_pT-xiRRaMxpOXz4g-zy-2" source="_pT-xiRRaMxpOXz4g-zy-6" target="_pT-xiRRaMxpOXz4g-zy-7">
          <mxGeometry width="50" height="50" relative="1" as="geometry">
            <mxPoint x="340" y="210" as="sourcePoint" />
            <mxPoint x="390" y="160" as="targetPoint" />
          </mxGeometry>
        </mxCell>
        <mxCell id="_pT-xiRRaMxpOXz4g-zy-29" value="" style="endArrow=classic;html=1;rounded=0;exitX=0.5;exitY=1;exitDx=0;exitDy=0;" edge="1" parent="_pT-xiRRaMxpOXz4g-zy-2" source="_pT-xiRRaMxpOXz4g-zy-9" target="_pT-xiRRaMxpOXz4g-zy-11">
          <mxGeometry width="50" height="50" relative="1" as="geometry">
            <mxPoint x="260" y="380" as="sourcePoint" />
            <mxPoint x="310" y="330" as="targetPoint" />
          </mxGeometry>
        </mxCell>
        <mxCell id="_pT-xiRRaMxpOXz4g-zy-33" value="no" style="text;html=1;align=center;verticalAlign=middle;whiteSpace=wrap;rounded=0;" vertex="1" parent="_pT-xiRRaMxpOXz4g-zy-2">
          <mxGeometry x="105" y="470" width="60" height="40" as="geometry" />
        </mxCell>
        <mxCell id="_pT-xiRRaMxpOXz4g-zy-45" value="view" style="text;html=1;align=center;verticalAlign=middle;whiteSpace=wrap;rounded=0;" vertex="1" parent="_pT-xiRRaMxpOXz4g-zy-2">
          <mxGeometry x="115" y="880" width="60" height="40" as="geometry" />
        </mxCell>
        <mxCell id="_pT-xiRRaMxpOXz4g-zy-24" value="" style="endArrow=classic;html=1;rounded=0;exitX=1;exitY=0.5;exitDx=0;exitDy=0;entryX=0;entryY=0.5;entryDx=0;entryDy=0;" edge="1" parent="_pT-xiRRaMxpOXz4g-zy-1" source="_pT-xiRRaMxpOXz4g-zy-7" target="_pT-xiRRaMxpOXz4g-zy-10">
          <mxGeometry width="50" height="50" relative="1" as="geometry">
            <mxPoint x="340" y="230" as="sourcePoint" />
            <mxPoint x="390" y="180" as="targetPoint" />
          </mxGeometry>
        </mxCell>
        <mxCell id="_pT-xiRRaMxpOXz4g-zy-28" value="" style="endArrow=classic;html=1;rounded=0;exitX=0;exitY=0.5;exitDx=0;exitDy=0;entryX=1.021;entryY=0.397;entryDx=0;entryDy=0;entryPerimeter=0;" edge="1" parent="_pT-xiRRaMxpOXz4g-zy-1" source="_pT-xiRRaMxpOXz4g-zy-26" target="_pT-xiRRaMxpOXz4g-zy-9">
          <mxGeometry width="50" height="50" relative="1" as="geometry">
            <mxPoint x="260" y="310" as="sourcePoint" />
            <mxPoint x="310" y="260" as="targetPoint" />
          </mxGeometry>
        </mxCell>
        <mxCell id="_pT-xiRRaMxpOXz4g-zy-30" value="" style="endArrow=classic;html=1;rounded=0;exitX=1;exitY=0.5;exitDx=0;exitDy=0;entryX=0;entryY=0.75;entryDx=0;entryDy=0;" edge="1" parent="_pT-xiRRaMxpOXz4g-zy-1" source="_pT-xiRRaMxpOXz4g-zy-11" target="_pT-xiRRaMxpOXz4g-zy-12">
          <mxGeometry width="50" height="50" relative="1" as="geometry">
            <mxPoint x="260" y="460" as="sourcePoint" />
            <mxPoint x="310" y="410" as="targetPoint" />
          </mxGeometry>
        </mxCell>
        <mxCell id="_pT-xiRRaMxpOXz4g-zy-32" value="" style="endArrow=classic;html=1;rounded=0;exitX=0.5;exitY=1;exitDx=0;exitDy=0;entryX=0;entryY=0.5;entryDx=0;entryDy=0;" edge="1" parent="_pT-xiRRaMxpOXz4g-zy-1" source="_pT-xiRRaMxpOXz4g-zy-11" target="_pT-xiRRaMxpOXz4g-zy-13">
          <mxGeometry width="50" height="50" relative="1" as="geometry">
            <mxPoint x="260" y="510" as="sourcePoint" />
            <mxPoint x="310" y="460" as="targetPoint" />
            <Array as="points">
              <mxPoint x="100" y="520" />
            </Array>
          </mxGeometry>
        </mxCell>
        <mxCell id="_pT-xiRRaMxpOXz4g-zy-39" value="" style="endArrow=classic;html=1;rounded=0;exitX=0.5;exitY=1;exitDx=0;exitDy=0;entryX=0.5;entryY=0;entryDx=0;entryDy=0;" edge="1" parent="_pT-xiRRaMxpOXz4g-zy-1" source="_pT-xiRRaMxpOXz4g-zy-14" target="_pT-xiRRaMxpOXz4g-zy-18">
          <mxGeometry width="50" height="50" relative="1" as="geometry">
            <mxPoint x="260" y="850" as="sourcePoint" />
            <mxPoint x="310" y="800" as="targetPoint" />
            <Array as="points">
              <mxPoint x="355" y="790" />
              <mxPoint x="100" y="790" />
            </Array>
          </mxGeometry>
        </mxCell>
        <mxCell id="_pT-xiRRaMxpOXz4g-zy-40" value="" style="endArrow=classic;html=1;rounded=0;exitX=1;exitY=0.5;exitDx=0;exitDy=0;entryX=-0.005;entryY=0.381;entryDx=0;entryDy=0;entryPerimeter=0;" edge="1" parent="_pT-xiRRaMxpOXz4g-zy-1" source="_pT-xiRRaMxpOXz4g-zy-18" target="_pT-xiRRaMxpOXz4g-zy-19">
          <mxGeometry width="50" height="50" relative="1" as="geometry">
            <mxPoint x="260" y="930" as="sourcePoint" />
            <mxPoint x="310" y="880" as="targetPoint" />
          </mxGeometry>
        </mxCell>
        <mxCell id="_pT-xiRRaMxpOXz4g-zy-44" value="" style="endArrow=classic;html=1;rounded=0;exitX=0.5;exitY=1;exitDx=0;exitDy=0;entryX=0;entryY=0.5;entryDx=0;entryDy=0;" edge="1" parent="_pT-xiRRaMxpOXz4g-zy-1" source="_pT-xiRRaMxpOXz4g-zy-18" target="_pT-xiRRaMxpOXz4g-zy-20">
          <mxGeometry width="50" height="50" relative="1" as="geometry">
            <mxPoint x="260" y="940" as="sourcePoint" />
            <mxPoint x="310" y="890" as="targetPoint" />
            <Array as="points">
              <mxPoint x="100" y="930" />
            </Array>
          </mxGeometry>
        </mxCell>
        <mxCell id="_pT-xiRRaMxpOXz4g-zy-3" value="System" style="swimlane;startSize=20;html=1;" vertex="1" parent="_pT-xiRRaMxpOXz4g-zy-1">
          <mxGeometry x="200" y="20" width="320" height="1160" as="geometry" />
        </mxCell>
        <mxCell id="_pT-xiRRaMxpOXz4g-zy-8" value="Collect data" style="rounded=1;whiteSpace=wrap;html=1;" vertex="1" parent="_pT-xiRRaMxpOXz4g-zy-3">
          <mxGeometry x="95" y="620" width="120" height="40" as="geometry" />
        </mxCell>
        <mxCell id="_pT-xiRRaMxpOXz4g-zy-10" value="identify user" style="rounded=1;whiteSpace=wrap;html=1;" vertex="1" parent="_pT-xiRRaMxpOXz4g-zy-3">
          <mxGeometry x="100" y="180" width="120" height="40" as="geometry" />
        </mxCell>
        <mxCell id="_pT-xiRRaMxpOXz4g-zy-12" value="Apply filters" style="rounded=1;whiteSpace=wrap;html=1;" vertex="1" parent="_pT-xiRRaMxpOXz4g-zy-3">
          <mxGeometry x="160" y="390" width="120" height="40" as="geometry" />
        </mxCell>
        <mxCell id="_pT-xiRRaMxpOXz4g-zy-13" value="Use default settings" style="rounded=1;whiteSpace=wrap;html=1;" vertex="1" parent="_pT-xiRRaMxpOXz4g-zy-3">
          <mxGeometry x="20" y="480" width="120" height="40" as="geometry" />
        </mxCell>
        <mxCell id="_pT-xiRRaMxpOXz4g-zy-14" value="Generate the report" style="rounded=1;whiteSpace=wrap;html=1;" vertex="1" parent="_pT-xiRRaMxpOXz4g-zy-3">
          <mxGeometry x="95" y="700" width="120" height="40" as="geometry" />
        </mxCell>
        <mxCell id="_pT-xiRRaMxpOXz4g-zy-19" value="Download Report" style="rounded=1;whiteSpace=wrap;html=1;" vertex="1" parent="_pT-xiRRaMxpOXz4g-zy-3">
          <mxGeometry x="180" y="820" width="120" height="40" as="geometry" />
        </mxCell>
        <mxCell id="_pT-xiRRaMxpOXz4g-zy-20" value="Display Report" style="rounded=1;whiteSpace=wrap;html=1;" vertex="1" parent="_pT-xiRRaMxpOXz4g-zy-3">
          <mxGeometry x="30" y="890" width="120" height="40" as="geometry" />
        </mxCell>
        <mxCell id="_pT-xiRRaMxpOXz4g-zy-21" value="" style="ellipse;html=1;shape=endState;fillColor=#000000;strokeColor=#000000;" vertex="1" parent="_pT-xiRRaMxpOXz4g-zy-3">
          <mxGeometry x="155" y="1060" width="30" height="30" as="geometry" />
        </mxCell>
        <mxCell id="_pT-xiRRaMxpOXz4g-zy-26" value="Display availble reports types" style="rounded=1;whiteSpace=wrap;html=1;" vertex="1" parent="_pT-xiRRaMxpOXz4g-zy-3">
          <mxGeometry x="100" y="250" width="120" height="40" as="geometry" />
        </mxCell>
        <mxCell id="_pT-xiRRaMxpOXz4g-zy-27" value="" style="endArrow=classic;html=1;rounded=0;exitX=0.5;exitY=1;exitDx=0;exitDy=0;entryX=0.5;entryY=0;entryDx=0;entryDy=0;" edge="1" parent="_pT-xiRRaMxpOXz4g-zy-3" source="_pT-xiRRaMxpOXz4g-zy-10" target="_pT-xiRRaMxpOXz4g-zy-26">
          <mxGeometry width="50" height="50" relative="1" as="geometry">
            <mxPoint x="60" y="240" as="sourcePoint" />
            <mxPoint x="110" y="190" as="targetPoint" />
          </mxGeometry>
        </mxCell>
        <mxCell id="_pT-xiRRaMxpOXz4g-zy-31" value="yes" style="text;html=1;align=center;verticalAlign=middle;whiteSpace=wrap;rounded=0;" vertex="1" parent="_pT-xiRRaMxpOXz4g-zy-3">
          <mxGeometry x="60" y="395" width="60" height="30" as="geometry" />
        </mxCell>
        <mxCell id="_pT-xiRRaMxpOXz4g-zy-34" value="" style="line;strokeWidth=5;rotatable=0;dashed=0;labelPosition=right;align=left;verticalAlign=middle;spacingTop=0;spacingLeft=6;points=[];portConstraint=eastwest;" vertex="1" parent="_pT-xiRRaMxpOXz4g-zy-3">
          <mxGeometry x="60" y="570" width="200" height="10" as="geometry" />
        </mxCell>
        <mxCell id="_pT-xiRRaMxpOXz4g-zy-35" value="" style="endArrow=classic;html=1;rounded=0;exitX=0.665;exitY=1.073;exitDx=0;exitDy=0;exitPerimeter=0;entryX=0.197;entryY=0.338;entryDx=0;entryDy=0;entryPerimeter=0;" edge="1" parent="_pT-xiRRaMxpOXz4g-zy-3" source="_pT-xiRRaMxpOXz4g-zy-13" target="_pT-xiRRaMxpOXz4g-zy-34">
          <mxGeometry width="50" height="50" relative="1" as="geometry">
            <mxPoint x="-20" y="650" as="sourcePoint" />
            <mxPoint x="30" y="600" as="targetPoint" />
          </mxGeometry>
        </mxCell>
        <mxCell id="_pT-xiRRaMxpOXz4g-zy-36" value="" style="endArrow=classic;html=1;rounded=0;exitX=0.5;exitY=1;exitDx=0;exitDy=0;entryX=0.799;entryY=0.324;entryDx=0;entryDy=0;entryPerimeter=0;" edge="1" parent="_pT-xiRRaMxpOXz4g-zy-3" source="_pT-xiRRaMxpOXz4g-zy-12" target="_pT-xiRRaMxpOXz4g-zy-34">
          <mxGeometry width="50" height="50" relative="1" as="geometry">
            <mxPoint y="630" as="sourcePoint" />
            <mxPoint x="220" y="570" as="targetPoint" />
          </mxGeometry>
        </mxCell>
        <mxCell id="_pT-xiRRaMxpOXz4g-zy-37" value="" style="endArrow=classic;html=1;rounded=0;entryX=0.543;entryY=0.051;entryDx=0;entryDy=0;entryPerimeter=0;exitX=0.497;exitY=0.355;exitDx=0;exitDy=0;exitPerimeter=0;" edge="1" parent="_pT-xiRRaMxpOXz4g-zy-3" source="_pT-xiRRaMxpOXz4g-zy-34" target="_pT-xiRRaMxpOXz4g-zy-8">
          <mxGeometry width="50" height="50" relative="1" as="geometry">
            <mxPoint x="160" y="578" as="sourcePoint" />
            <mxPoint x="130" y="540" as="targetPoint" />
          </mxGeometry>
        </mxCell>
        <mxCell id="_pT-xiRRaMxpOXz4g-zy-38" value="" style="endArrow=classic;html=1;rounded=0;exitX=0.5;exitY=1;exitDx=0;exitDy=0;entryX=0.5;entryY=0;entryDx=0;entryDy=0;" edge="1" parent="_pT-xiRRaMxpOXz4g-zy-3" source="_pT-xiRRaMxpOXz4g-zy-8" target="_pT-xiRRaMxpOXz4g-zy-14">
          <mxGeometry width="50" height="50" relative="1" as="geometry">
            <mxPoint x="60" y="710" as="sourcePoint" />
            <mxPoint x="110" y="660" as="targetPoint" />
          </mxGeometry>
        </mxCell>
        <mxCell id="_pT-xiRRaMxpOXz4g-zy-41" value="export" style="text;html=1;align=center;verticalAlign=middle;whiteSpace=wrap;rounded=0;" vertex="1" parent="_pT-xiRRaMxpOXz4g-zy-3">
          <mxGeometry x="60" y="810" width="60" height="30" as="geometry" />
        </mxCell>
        <mxCell id="_pT-xiRRaMxpOXz4g-zy-46" value="" style="line;strokeWidth=5;rotatable=0;dashed=0;labelPosition=right;align=left;verticalAlign=middle;spacingTop=0;spacingLeft=6;points=[];portConstraint=eastwest;" vertex="1" parent="_pT-xiRRaMxpOXz4g-zy-3">
          <mxGeometry x="70" y="980" width="200" height="10" as="geometry" />
        </mxCell>
        <mxCell id="_pT-xiRRaMxpOXz4g-zy-47" value="" style="endArrow=classic;html=1;rounded=0;entryX=0.201;entryY=0.215;entryDx=0;entryDy=0;entryPerimeter=0;" edge="1" parent="_pT-xiRRaMxpOXz4g-zy-3" target="_pT-xiRRaMxpOXz4g-zy-46">
          <mxGeometry width="50" height="50" relative="1" as="geometry">
            <mxPoint x="110" y="928" as="sourcePoint" />
            <mxPoint x="110" y="950" as="targetPoint" />
          </mxGeometry>
        </mxCell>
        <mxCell id="_pT-xiRRaMxpOXz4g-zy-49" value="" style="endArrow=classic;html=1;rounded=0;exitX=0.406;exitY=1.032;exitDx=0;exitDy=0;exitPerimeter=0;entryX=0.794;entryY=0.271;entryDx=0;entryDy=0;entryPerimeter=0;" edge="1" parent="_pT-xiRRaMxpOXz4g-zy-3" source="_pT-xiRRaMxpOXz4g-zy-19" target="_pT-xiRRaMxpOXz4g-zy-46">
          <mxGeometry width="50" height="50" relative="1" as="geometry">
            <mxPoint x="70" y="1000" as="sourcePoint" />
            <mxPoint x="229" y="980" as="targetPoint" />
          </mxGeometry>
        </mxCell>
        <mxCell id="_pT-xiRRaMxpOXz4g-zy-50" value="" style="endArrow=classic;html=1;rounded=0;exitX=0.499;exitY=0.713;exitDx=0;exitDy=0;exitPerimeter=0;entryX=0.5;entryY=0;entryDx=0;entryDy=0;" edge="1" parent="_pT-xiRRaMxpOXz4g-zy-3" source="_pT-xiRRaMxpOXz4g-zy-46" target="_pT-xiRRaMxpOXz4g-zy-21">
          <mxGeometry width="50" height="50" relative="1" as="geometry">
            <mxPoint x="40" y="990" as="sourcePoint" />
            <mxPoint x="90" y="940" as="targetPoint" />
          </mxGeometry>
        </mxCell>
      </root>
    </mxGraphModel>
  </diagram>
</mxfile>
